<svg width="803" height="803" viewBox="0 0 803 803" fill="none" xmlns="http://www.w3.org/2000/svg">
<g clip-path="url(#clip0_1_31)">
<mask id="mask0_1_31" style="mask-type:luminance" maskUnits="userSpaceOnUse" x="0" y="0" width="803" height="803">
<path d="M803 0H0V803H803V0Z" fill="white"/>
</mask>
<g mask="url(#mask0_1_31)">
<g opacity="0.2">
<path d="M312.354 893.306H399.016V654.806H312.354V893.306Z" fill="#229FE4"/>
<path d="M355.685 893.306H449.509V763.335H355.685V893.306Z" fill="#47BAEC"/>
<path d="M411.628 893.306H487.39V794.468H411.628V893.306Z" fill="#229FE4"/>
<path d="M425.963 893.306H494.966V800.646H425.963V893.306Z" fill="#47BAEC"/>
<path d="M490.758 893.317H537.044V727.155H490.758V893.317Z" fill="#47BAEC"/>
<path d="M522.731 893.317H563.958V649.759H522.731V893.317Z" fill="#229FE4"/>
<path d="M543.344 893.306H630.454V584.125H543.344V893.306Z" fill="#47BAEC"/>
<path d="M242.075 893.317H303.513V781.006H242.075V893.317Z" fill="#47BAEC"/>
<path d="M189.467 798.687V893.306H244.19V798.687H231.153V786.053H222.737V768.394H213.482V786.053H205.47V798.687H189.467Z" fill="#47BAEC"/>
<path d="M372.941 669.959H307.295V667.139H372.941V669.959Z" fill="#47BAEC"/>
<path d="M372.941 682.246H307.295V679.426H372.941V682.246Z" fill="#47BAEC"/>
<path d="M372.941 694.534H307.295V691.736H372.941V694.534Z" fill="#47BAEC"/>
<path d="M372.941 706.833H307.295V704.035H372.941V706.833Z" fill="#47BAEC"/>
<path d="M372.941 719.131H307.295V716.334H372.941V719.131Z" fill="#47BAEC"/>
<path d="M372.941 731.452H307.295V728.632H372.941V731.452Z" fill="#47BAEC"/>
<path d="M372.941 743.74H307.295V740.942H372.941V743.74Z" fill="#47BAEC"/>
<path d="M372.941 756.039H307.295V753.241H372.941V756.039Z" fill="#47BAEC"/>
<path d="M297.201 796.348H290.263V789.41H297.201V796.348Z" fill="#229FE4"/>
<path d="M287.667 796.348H280.706V789.41H287.667V796.348Z" fill="#229FE4"/>
<path d="M278.11 796.348H271.171V789.41H278.11V796.348Z" fill="#229FE4"/>
<path d="M268.575 796.348H261.614V789.41H268.575V796.348Z" fill="#229FE4"/>
<path d="M259.007 796.348H252.068V789.41H259.007V796.348Z" fill="#229FE4"/>
<path d="M297.201 807.259H290.263V800.321H297.201V807.259Z" fill="#229FE4"/>
<path d="M287.667 807.259H280.706V800.321H287.667V807.259Z" fill="#229FE4"/>
<path d="M278.11 807.259H271.171V800.321H278.11V807.259Z" fill="#229FE4"/>
<path d="M268.575 807.259H261.614V800.321H268.575V807.259Z" fill="#229FE4"/>
<path d="M259.007 807.259H252.068V800.321H259.007V807.259Z" fill="#229FE4"/>
<path d="M389.358 776.574H381.032V773.105H389.358V776.574Z" fill="#229FE4"/>
<path d="M389.347 782.785H385.027V778.465H389.347V782.785Z" fill="#229FE4"/>
<path d="M429.88 774.839H425.381V770.341H429.88V774.839Z" fill="#229FE4"/>
<path d="M432.409 788.85H428.201V784.643H432.409V788.85Z" fill="#229FE4"/>
<path d="M407.722 790.943H403.514V786.735H407.722V790.943Z" fill="#229FE4"/>
<path d="M537.033 732.202H490.747V727.144H537.033V732.202Z" fill="#229FE4"/>
<path d="M537.033 800.646H490.747V795.587H537.033V800.646Z" fill="#229FE4"/>
<path d="M619.789 688.726H597.9V683.824H619.789V688.726Z" fill="#229FE4"/>
<path d="M594.24 698.686H572.351V693.784H594.24V698.686Z" fill="#229FE4"/>
<path d="M619.789 718.605H597.9V713.704H619.789V718.605Z" fill="#229FE4"/>
<path d="M594.24 718.605H572.351V713.704H594.24V718.605Z" fill="#229FE4"/>
<path d="M630.443 630.399H558.911V625.766H630.443V630.399Z" fill="#229FE4"/>
<path d="M768.739 893.317H842.801V727.155H768.739V893.317Z" fill="#47BAEC"/>
<path d="M375.884 763.335H399.027V654.806H375.884V763.335Z" fill="#47BAEC"/>
</g>
<path d="M611.621 795.793V818.461H546.924V806.669H551.552V768.507H563.415V776.875H566.223V787.996H570.588V803.916H571.901V795.675H576.194V791.428H583.085V777.563H594.877V804.17H596.09V795.322H604.458V795.793H611.621Z" fill="#229FE4"/>
<path d="M670.079 792.469V818.461H596.307V804.885H601.569V761.352H615.108V770.898H618.296V783.576H623.277V801.743H624.771V792.324H629.68V787.488H637.522V771.685H651.007V802.033H652.356V791.935H661.91V792.469H670.079Z" fill="#47BAEC"/>
<path d="M759.273 799.207V818.461H703.94V808.517H707.898V775.878H718.05V783.024H720.44V792.542H724.172V806.171H725.295V799.098H728.971V795.476H734.849V783.612H744.946V806.371H745.979V798.809H753.142V799.207H759.273Z" fill="#229FE4"/>
<path d="M773.193 805.184V818.461H734.242V811.741H737.031V788.756H744.186V793.792H745.852V800.484H748.487V810.075H749.275V805.112H751.875V802.549H756.013V794.208H763.113V810.229H763.847V804.904H768.882V805.184H773.193Z" fill="#229FE4"/>
<path d="M801.801 805.184V818.461H762.851V811.741H765.64V788.756H772.794V793.792H774.461V800.484H777.096V810.075H777.884V805.112H780.483V802.549H784.622V794.208H791.731V810.229H792.455V804.904H797.49V805.184H801.801Z" fill="#229FE4"/>
<path d="M832.103 778.622V818.461H775.864V815.3H781.678V767.221H796.621V777.762H800.171V791.772H805.659V811.859H807.325V801.444H812.732V796.11H821.399V778.622H832.103Z" fill="#229FE4"/>
<path d="M689.16 808.653V818.461H659.728V813.606H661.829V796.237H667.226V800.049H668.512V805.103H670.487V812.348H671.084V808.598H673.05V806.669H676.174V800.357H681.544V812.465H682.106V808.453H685.9V808.653H689.16Z" fill="#229FE4"/>
<path d="M737.348 809.332V818.461H686.217V800.729H691.877V800.375H698.488V807.358H699.439V786.329H708.785V797.287H714.219V800.638H717.606V807.158H718.656V794.561H722.098V785.777H724.326V779.157H733.708V809.332H737.348Z" fill="#229FE4"/>
<path d="M568.994 818.461H454.578V783.54H568.994V818.461Z" fill="#229FE4"/>
<path d="M473.642 818.461H403.51V625.455H473.642V818.461Z" fill="#229FE4"/>
<path d="M438.576 818.461H362.649V713.282H438.576V818.461Z" fill="#47BAEC"/>
<path d="M393.304 818.461H331.994V738.476H393.304V818.461Z" fill="#229FE4"/>
<path d="M381.703 818.461H325.863V743.475H381.703V818.461Z" fill="#47BAEC"/>
<path d="M329.268 818.47H291.812V684.004H329.268V818.47Z" fill="#47BAEC"/>
<path d="M303.394 818.47H270.031V621.371H303.394V818.47Z" fill="#229FE4"/>
<path d="M286.713 818.461H216.22V568.257H286.713V818.461Z" fill="#47BAEC"/>
<path d="M234.604 818.461H188.779V792.94H234.604V818.461Z" fill="#229FE4"/>
<path d="M211.701 762.81V818.47H194.421V762.81H199.873V748.683H209.763V762.81H211.701Z" fill="#229FE4"/>
<path d="M188.779 818.461H154.257V776.603H188.779V818.461Z" fill="#229FE4"/>
<path d="M164.255 818.461H128.846V787.941H164.255V818.461Z" fill="#229FE4"/>
<path d="M153.732 818.461H57.1027V776.603L57.3743 762.801L58.932 684.004L64.3567 409.402L84.3346 390.339L138.817 399.413L152.636 787.941L153.732 818.461Z" fill="#47BAEC"/>
<path d="M62.9982 818.461H6.46954V762.801H62.9982V818.461Z" fill="#229FE4"/>
<path d="M26.2211 576.425V818.461H-24.1675V577.784L16.0057 571.662L26.2211 576.425Z" fill="#47BAEC"/>
<path d="M530.514 818.47H480.796V727.582H530.514V818.47Z" fill="#47BAEC"/>
<path d="M573.087 741.891V818.461H528.803V741.891H539.353V731.666H546.163V717.376H553.653V731.666H560.137V741.891H573.087Z" fill="#47BAEC"/>
<path d="M424.611 637.717H477.735V635.435H424.611V637.717Z" fill="#47BAEC"/>
<path d="M424.611 647.661H477.735V645.379H424.611V647.661Z" fill="#47BAEC"/>
<path d="M424.611 657.605H477.735V655.341H424.611V657.605Z" fill="#47BAEC"/>
<path d="M424.611 667.557H477.735V665.293H424.611V667.557Z" fill="#47BAEC"/>
<path d="M424.611 677.51H477.735V675.246H424.611V677.51Z" fill="#47BAEC"/>
<path d="M424.611 687.481H477.735V685.199H424.611V687.481Z" fill="#47BAEC"/>
<path d="M424.611 697.425H477.735V695.161H424.611V697.425Z" fill="#47BAEC"/>
<path d="M424.611 707.378H477.735V705.113H424.611V707.378Z" fill="#47BAEC"/>
<path d="M535.269 794.326H576.991V792.768H535.269V794.326Z" fill="#229FE4"/>
<path d="M535.269 801.145H576.991V799.588H535.269V801.145Z" fill="#229FE4"/>
<path d="M485.904 739.998H491.518V734.383H485.904V739.998Z" fill="#229FE4"/>
<path d="M493.619 739.998H499.252V734.383H493.619V739.998Z" fill="#229FE4"/>
<path d="M501.353 739.998H506.968V734.383H501.353V739.998Z" fill="#229FE4"/>
<path d="M509.069 739.998H514.702V734.383H509.069V739.998Z" fill="#229FE4"/>
<path d="M516.812 739.998H522.427V734.383H516.812V739.998Z" fill="#229FE4"/>
<path d="M485.904 748.828H491.518V743.213H485.904V748.828Z" fill="#229FE4"/>
<path d="M493.619 748.828H499.252V743.213H493.619V748.828Z" fill="#229FE4"/>
<path d="M501.353 748.828H506.968V743.213H501.353V748.828Z" fill="#229FE4"/>
<path d="M509.069 748.828H514.702V743.213H509.069V748.828Z" fill="#229FE4"/>
<path d="M516.812 748.828H522.427V743.213H516.812V748.828Z" fill="#229FE4"/>
<path d="M485.904 757.657H491.518V752.043H485.904V757.657Z" fill="#229FE4"/>
<path d="M493.619 757.657H499.252V752.043H493.619V757.657Z" fill="#229FE4"/>
<path d="M501.353 757.657H506.968V752.043H501.353V757.657Z" fill="#229FE4"/>
<path d="M509.069 757.657H514.702V752.043H509.069V757.657Z" fill="#229FE4"/>
<path d="M516.812 757.657H522.427V752.043H516.812V757.657Z" fill="#229FE4"/>
<path d="M485.904 766.505H491.518V760.872H485.904V766.505Z" fill="#229FE4"/>
<path d="M493.619 766.505H499.252V760.872H493.619V766.505Z" fill="#229FE4"/>
<path d="M501.353 766.505H506.968V760.872H501.353V766.505Z" fill="#229FE4"/>
<path d="M509.069 766.505H514.702V760.872H509.069V766.505Z" fill="#229FE4"/>
<path d="M516.812 766.505H522.427V760.872H516.812V766.505Z" fill="#229FE4"/>
<path d="M485.904 775.317H491.518V769.702H485.904V775.317Z" fill="#229FE4"/>
<path d="M493.619 775.317H499.252V769.702H493.619V775.317Z" fill="#229FE4"/>
<path d="M501.353 775.317H506.968V769.702H501.353V775.317Z" fill="#229FE4"/>
<path d="M509.069 775.317H514.702V769.702H509.069V775.317Z" fill="#229FE4"/>
<path d="M516.812 775.317H522.427V769.702H516.812V775.317Z" fill="#229FE4"/>
<path d="M411.326 723.996H418.064V721.188H411.326V723.996Z" fill="#229FE4"/>
<path d="M411.335 729.022H414.831V725.526H411.335V729.022Z" fill="#229FE4"/>
<path d="M378.534 722.592H382.174V718.951H378.534V722.592Z" fill="#229FE4"/>
<path d="M376.487 733.93H379.892V730.525H376.487V733.93Z" fill="#229FE4"/>
<path d="M396.465 735.624H399.87V732.219H396.465V735.624Z" fill="#229FE4"/>
<path d="M375.128 757.83H378.697V754.252H375.128V757.83Z" fill="#229FE4"/>
<path d="M375.128 764.73H378.697V761.162H375.128V764.73Z" fill="#229FE4"/>
<path d="M341.983 798.157H346.185V793.955H341.983V798.157Z" fill="#229FE4"/>
<path d="M348.34 798.157H352.542V793.955H348.34V798.157Z" fill="#229FE4"/>
<path d="M348.34 806.325H352.542V802.123H348.34V806.325Z" fill="#229FE4"/>
<path d="M291.821 688.088H329.277V683.994H291.821V688.088Z" fill="#229FE4"/>
<path d="M291.821 743.475H329.277V739.382H291.821V743.475Z" fill="#229FE4"/>
<path d="M331.994 818.461H294.32V776.603H331.994V818.461Z" fill="#229FE4"/>
<path d="M224.85 652.905H242.564V648.938H224.85V652.905Z" fill="#229FE4"/>
<path d="M245.526 660.965H263.239V656.998H245.526V660.965Z" fill="#229FE4"/>
<path d="M224.85 677.085H242.564V673.118H224.85V677.085Z" fill="#229FE4"/>
<path d="M245.526 677.085H263.239V673.118H245.526V677.085Z" fill="#229FE4"/>
<path d="M216.229 605.704H274.116V601.954H216.229V605.704Z" fill="#229FE4"/>
<path d="M84.3346 390.339L57.0936 796.056L64.3567 409.393L84.3346 390.339Z" fill="#229FE4"/>
<path d="M91.8331 403.851L100.971 405.78L100.273 402.818L91.1357 400.889L91.8331 403.851Z" fill="#229FE4"/>
<path d="M104.43 413.378L113.568 415.307L112.871 412.345L103.733 410.416L104.43 413.378Z" fill="#229FE4"/>
<path d="M119.074 410.942L128.221 412.871L127.514 409.909L118.386 407.98L119.074 410.942Z" fill="#229FE4"/>
<path d="M95.8269 450.599L104.965 452.528L104.267 449.566L95.1476 447.637L95.8269 450.599Z" fill="#229FE4"/>
<path d="M97.629 458.17L106.749 460.099L106.069 457.137L96.9317 455.208L97.629 458.17Z" fill="#229FE4"/>
<path d="M99.5852 465.75L108.723 467.67L108.026 464.717L98.8878 462.797L99.5852 465.75Z" fill="#229FE4"/>
<path d="M119.092 490.935H123.131V486.896H119.092V490.935Z" fill="#229FE4"/>
<path d="M118.078 499.882H122.117V495.843H118.078V499.882Z" fill="#229FE4"/>
<path d="M109.547 516.555H113.586V512.516H109.547V516.555Z" fill="#229FE4"/>
<path d="M110.235 526H114.274V521.961H110.235V526Z" fill="#229FE4"/>
<path d="M90.0309 549.854H94.07V545.815H90.0309V549.854Z" fill="#229FE4"/>
<path d="M89.2611 565.857H93.3002V561.818H89.2611V565.857Z" fill="#229FE4"/>
<path d="M95.1658 599.89H99.2048V595.851H95.1658V599.89Z" fill="#229FE4"/>
<path d="M81.663 606.365H85.702V602.326H81.663V606.365Z" fill="#229FE4"/>
<path d="M104.313 818.47H44.3787V684.004H104.313V818.47Z" fill="#47BAEC"/>
<path d="M138.817 818.47H88.8627V779.655H138.817V818.47Z" fill="#229FE4"/>
<path d="M422.23 713.282H403.501V625.455H422.23V713.282Z" fill="#47BAEC"/>
<path d="M26.2211 691.565V794.77L-24.1675 784.808V691.565H26.2211Z" fill="#47BAEC"/>
<path d="M16.0057 571.662V792.94L-24.1856 727.211V577.793L16.0057 571.662Z" fill="#5CCFF7"/>
<path d="M571.185 396.173C568.953 394.635 567.175 393.635 560.105 390.492C559.642 390.286 557.964 389.302 557.352 388.955C555.822 388.086 554.251 386.681 552.903 385.267C551.614 383.919 550.869 379.462 550.472 375.932C550.936 367.969 558.27 240.386 560.246 226.528C562.28 212.232 557.757 190.676 557.757 190.676L548.777 187.625L533.836 246.554L536.614 290.948C536.614 290.948 533.084 303.888 532.827 311.561C532.579 319.226 540.831 381.166 540.831 381.166C540.906 383.382 540.889 385.399 540.683 386.672C540.302 389.004 537.913 393.874 539.153 396.016C540.385 398.166 541.741 398.67 541.741 398.67L572.029 398.166C573.674 398.133 572.549 397.107 571.185 396.173Z" fill="#F48B7E"/>
<path d="M518.382 187.401C518.382 187.401 508.394 203.599 506.319 216.804C504.243 230.009 509.907 270.194 505.649 287.55C503.35 296.943 493.941 311.636 492.833 323.716C491.725 335.796 487.632 370.689 487.632 370.689C486.954 374.352 485.871 378.9 484.333 381.042C483.398 382.365 481.645 384.043 480.537 386.4C478.818 390.071 480.008 395.412 481.463 398.323C482.208 399.819 481.472 399.844 483.068 400.282C487.805 401.572 492.717 398.968 494.561 394.412C495.594 391.857 496.463 388.475 496.52 384.233C496.578 379.752 497.165 376.18 497.819 373.517L528.726 290.005L550.729 218.086L555.756 181.25L518.382 187.401Z" fill="#F79C8D"/>
<path d="M495.388 392.014C488.153 393.577 483.183 389.467 480.562 386.358C478.834 390.046 478.106 395.462 479.562 398.389C480.843 400.969 484.341 400.779 487.103 400.795C490.013 400.803 492.213 399.108 493.577 396.52C494.214 395.305 494.867 393.808 495.388 392.014Z" fill="#202020"/>
<path d="M557.352 388.946C549.414 391.261 543.444 390.063 540.095 388.831C539.318 391.278 538.285 394.362 538.946 396.09C539.748 398.215 540.815 398.67 541.741 398.67C549.059 398.62 568.539 398.24 574.112 398.133C574.889 398.116 575.295 397.19 574.765 396.611C573.343 394.999 557.955 389.294 557.352 388.946Z" fill="#202020"/>
<path d="M528.503 288.459C529.131 288.476 529.768 288.5 530.405 288.517H530.504C531.124 288.533 531.761 288.55 532.389 288.567H532.497C533.133 288.575 533.762 288.591 534.398 288.591C534.432 288.591 534.465 288.6 534.498 288.608C535.143 288.608 535.779 288.608 536.424 288.608C543.61 288.608 552.465 288.228 558.121 287.07C560.072 257.956 560.287 231.439 561.164 225.544C563.305 211.239 557.699 188.972 557.699 188.972L555.367 188.617L556.566 180.274L517.911 187.087C517.911 187.087 505.624 200.532 505.103 215.878C504.64 229.256 508.758 269.276 504.318 286.632C504.318 286.632 515.521 287.996 528.503 288.459Z" fill="#FAAA39"/>
<path d="M708.906 417.235L335.186 468.54L358.684 369.247L708.906 417.235Z" fill="#CECECE"/>
<path d="M267.159 424.523L708.906 417.248L358.684 369.247L267.159 424.523Z" fill="#E8E8E8"/>
<path d="M594.392 215.52C592.95 214.508 591.357 215.163 586.502 213.401C585.564 213.061 583.143 212.601 582.057 212.475C581.849 212.446 581.683 212.312 581.609 212.118C579.738 206.866 571.4 182.571 570.107 175.471C568.79 168.214 561.412 137.583 560.295 132.926C560.215 132.605 559.88 132.424 559.577 132.543L546.327 137.483C546.062 137.577 545.911 137.878 545.997 138.152C547.155 141.782 554.359 164.565 556.889 176.187C558.915 185.455 575.423 214.33 575.872 216.228C575.873 216.251 575.891 216.282 575.891 216.282C576.024 216.855 576.552 217.24 577.137 217.193C580.582 216.902 591.621 215.959 592.261 215.901C592.838 215.855 594.845 215.838 594.392 215.52Z" fill="#F48B7E"/>
<path d="M555.953 121.391C546.868 100.112 538.873 101.729 538.873 101.729L549.046 147.223C553.407 145.629 558.969 142.417 563.32 140.785C561.249 133.988 558.196 126.631 555.953 121.391Z" fill="#E84639"/>
<path d="M514.785 191.474C514.785 191.474 549.076 194.099 557.489 187.428C557.489 187.428 554.102 143.444 556.4 129.91C556.67 128.245 556.73 126.512 556.215 124.872C552.105 110.816 540.917 103.767 538.957 101.964C538.342 101.441 536.58 100.978 534.331 100.635C534.122 100.574 533.874 100.548 533.659 100.527C533.499 100.504 533.37 100.471 533.252 100.485C527.646 99.6912 520.059 99.3979 520.059 99.3979C520.059 99.3979 518.623 99.2667 516.496 99.4098C516.375 99.3765 516.288 99.381 516.17 99.3952L515.64 99.4388C510.992 99.7933 503.894 101.268 500.775 106.575C496.796 113.323 522.231 163.797 523.831 171.007C525.402 178.258 514.785 191.474 514.785 191.474Z" fill="#FA5545"/>
<path d="M501.117 226.447C500.382 224.85 498.687 224.614 495.376 220.652C494.732 219.884 492.854 218.268 491.978 217.615C491.813 217.497 491.739 217.287 491.784 217.086C492.79 211.604 497.786 186.412 500.232 179.625C502.741 172.684 511.754 142.495 513.132 137.907C513.219 137.593 513.027 137.27 512.707 137.215L498.772 134.833C498.483 134.785 498.215 134.966 498.15 135.247C497.329 138.965 492.107 162.279 488.455 173.598C485.547 182.624 485.324 215.892 484.755 217.763C484.748 217.78 484.749 217.795 484.742 217.812C484.565 218.377 484.834 218.974 485.364 219.224C488.489 220.703 498.508 225.433 499.078 225.712C499.599 225.955 501.349 226.943 501.117 226.447Z" fill="#F48B7E"/>
<path d="M510.872 152.129C510.872 152.129 520.884 126.77 520.525 118.264C520.166 109.759 510.92 100.996 503.728 103.254C496.537 105.519 494.019 145.122 494.019 145.122L510.872 152.129Z" fill="#E84639"/>
<path d="M509.336 170.408L523.778 173.359L530.811 148.87L516.37 145.919L509.336 170.408Z" fill="#F1F1F1"/>
<path d="M525.881 146.675C525.793 146.68 525.714 146.684 525.635 146.688C523.501 146.554 521.64 145.572 520.1 143.747C511.713 133.813 515.237 100.689 515.386 99.2847L517.621 99.5249C517.583 99.8602 514.048 133.087 521.825 142.292C522.952 143.646 524.251 144.355 525.756 144.443C525.788 144.45 525.819 144.44 525.85 144.438C529.309 144.257 533.977 122.027 536.199 101.132L538.426 101.372C537.3 111.987 533.099 146.297 525.881 146.675Z" fill="white"/>
<path d="M522.341 147.932L524.34 148.525L525.627 144.918L523.627 144.308L522.341 147.932Z" fill="white"/>
<path d="M518.851 154.79C518.494 156.459 519.333 157.923 520.737 158.064C522.141 158.205 523.576 156.963 523.941 155.293C524.29 153.624 523.443 152.152 522.039 152.011C520.627 151.879 519.215 153.12 518.851 154.79Z" fill="#FAAA39"/>
<path d="M514.155 162.885L522.957 164.687C523.125 164.717 523.316 164.58 523.369 164.371L523.389 164.307C523.45 164.097 523.36 163.904 523.192 163.873L514.391 162.071C514.222 162.041 514.031 162.178 513.971 162.387L513.958 162.451C513.898 162.661 513.987 162.855 514.155 162.885Z" fill="#090909"/>
<path d="M513.243 166.076L522.045 167.877C522.213 167.916 522.404 167.763 522.457 167.562L522.477 167.498C522.538 167.296 522.448 167.094 522.28 167.064L513.478 165.262C513.31 165.224 513.127 165.368 513.066 165.578L513.046 165.642C512.985 165.844 513.075 166.037 513.243 166.076Z" fill="#090909"/>
<path d="M512.378 54.0548C519.927 51.1799 524.299 49.9807 531.73 51.0009C538.113 51.8757 543.965 63.1746 544.68 69.7753C546.95 90.7185 519.048 92.4026 509.818 109.335C507.002 114.511 492.904 125.676 489.811 130.713C478.359 149.325 450.98 172.267 438.206 163.017C429.353 156.611 433.407 142.445 438.371 129.186C440.965 122.266 445.835 116.027 451.364 110.894C459.206 103.606 478.353 96.3584 486.876 90.1827C495.956 83.6005 502.345 57.8761 512.378 54.0548Z" fill="#202020"/>
<path d="M521.26 83.2765C521.26 83.2765 521.226 83.6632 521.16 84.3212C520.856 87.4789 521.889 95.5719 520.628 98.5333C519.122 102.116 526.307 111.519 533.895 109.536C536.151 108.94 531.137 100.262 531.252 99.2245C531.471 97.234 531.113 97.1681 531.414 94.3878C531.586 92.8157 531.772 91.2273 531.932 89.7327C532.402 85.4806 532.775 82.0113 532.775 82.0113L521.26 83.2765Z" fill="#E28E7C"/>
<path d="M526.785 56.3284C526.785 56.3284 521.294 56.1616 518.261 60.8714C515.235 65.5807 512.726 79.5575 521.818 86.266C530.926 92.9813 538.579 83.856 539.06 74.829C539.534 65.8101 539.096 54.96 526.785 56.3284Z" fill="#F5A18F"/>
<path d="M541.552 74.4819C540.705 76.5361 539.099 77.7752 537.969 77.2414C536.833 76.708 536.592 74.6107 537.439 72.5565C538.285 70.4947 539.884 69.2636 541.021 69.797C542.15 70.3308 542.391 72.4281 541.552 74.4819Z" fill="#F5A18F"/>
<path d="M530.443 54.5662C530.443 54.5662 534.439 64.2367 515.978 69.477C510.925 70.912 510.723 77.4834 510.723 77.4834C510.723 77.4834 511.235 61.4088 516.118 57.9036C520.994 54.3987 530.443 54.5662 530.443 54.5662Z" fill="#202020"/>
<path d="M517.613 72.6178C518.225 74.8882 517.562 77.079 516.114 77.5091C514.673 77.931 512.993 76.4404 512.381 74.17C511.754 71.9004 512.432 69.7088 513.873 69.2791C515.321 68.8568 516.994 70.3478 517.613 72.6178Z" fill="#F5A18F"/>
<path d="M524.731 80.4609L532.724 81.3361C532.724 81.3361 532.205 84.3511 528.679 84.0737C524.379 83.7213 524.731 80.4609 524.731 80.4609Z" fill="white"/>
<path d="M527.323 54.8288C527.323 54.8288 534.031 57.9197 538.212 73.0401C538.212 73.0401 543.834 66.878 539.462 61.0466C535.097 55.2072 533.789 52.5882 533.789 52.5882L527.323 54.8288Z" fill="#202020"/>
<path d="M523.92 69.5418C524.912 69.4899 525.758 70.2524 525.81 71.2436C525.862 72.2347 525.1 73.0817 524.109 73.1336C523.117 73.1855 522.271 72.423 522.219 71.4318C522.167 70.4407 522.929 69.5938 523.92 69.5418Z" fill="black" fill-opacity="0.7"/>
<path d="M531.776 69.1301C532.768 69.0782 533.614 69.8407 533.666 70.8319C533.718 71.8231 532.956 72.67 531.965 72.7219C530.973 72.7739 530.127 72.0113 530.075 71.0201C530.023 70.029 530.785 69.1821 531.776 69.1301Z" fill="black" fill-opacity="0.7"/>
<path d="M381.731 590.692C381.731 590.692 387.414 597.294 393.288 598.77C399.154 600.245 405.714 603.054 405.691 606.78C405.651 610.497 386.122 611.62 379.446 607.732C369.478 601.936 368.42 603.607 367.357 600.786C366.302 597.965 368.9 590.526 368.852 589.639C368.781 588.536 381.731 590.692 381.731 590.692Z" fill="#5F2509"/>
<path d="M381.147 587.57C381.147 587.57 381.854 590.63 381.74 590.684C381.616 590.746 368.398 592.063 368.852 589.631C369.205 587.656 369.72 585.519 369.72 585.519L381.147 587.57Z" fill="#F1F1F1"/>
<path d="M260.024 573.003C260.024 573.003 262.498 581.18 267.176 584.826C271.855 588.472 273.694 593.533 272.189 596.855C270.691 600.186 255.551 597.546 251.215 587.373C248.247 580.416 244.569 577.672 244.732 574.726C244.895 571.772 248.6 567.783 248.9 566.966C249.28 565.947 260.024 573.003 260.024 573.003Z" fill="#5F2509"/>
<path d="M261.375 570.162C261.375 570.162 260.153 572.992 260.024 573.003C259.894 573.013 247.675 569.04 248.901 566.957C249.872 565.299 251.672 563.564 251.672 563.564L261.375 570.162Z" fill="#F1F1F1"/>
<path d="M361.953 427.437C361.953 427.437 388.984 482.111 393.834 495.265C398.341 507.439 393.64 519.457 392.797 528.662C391.841 539.193 383.795 584.075 384.25 587.182C384.706 590.298 367.682 587.697 367.682 587.697C367.682 587.697 374.932 516.054 370.404 505.451C367.391 498.362 337.684 450.351 335.291 453.076C332.897 455.811 306.206 497.079 302.539 505.269C299.097 512.939 263.023 571.494 263.023 571.494C263.023 571.494 253.753 570.235 247.788 564.091C247.788 564.091 281.036 499.316 284.224 488.155C285.843 482.485 300.574 442.797 311.291 417.259C316.962 403.763 361.953 427.437 361.953 427.437Z" fill="#313133"/>
<path d="M560.852 626.4L122.747 686.544L150.293 570.144L560.852 626.4Z" fill="#CECECE"/>
<path d="M42.9998 634.944L560.852 626.415L150.293 570.144L42.9998 634.944Z" fill="#E8E8E8"/>
<path d="M477.905 353.703C477.905 353.703 471.75 351.962 470.355 349.924C468.969 347.896 473.989 343.191 473.989 343.191L478.637 342.749L477.905 353.703Z" fill="#EDA885"/>
<path d="M475.904 344.135C475.904 344.135 480.642 340.222 481.376 339.648C482.129 339.076 484.916 338.953 487.879 339.554C490.749 340.14 494.845 340.512 495.137 340.953C495.41 341.394 495.859 341.668 495.799 342.999C495.738 344.331 494.959 345.412 494.959 345.412C494.959 345.412 495.659 347.089 494.591 348.368C494.591 348.368 495.173 349.983 493.735 351.242C493.735 351.242 494.255 352.817 493.127 353.648C493.127 353.648 490.515 353.808 489.56 354.156C488.624 354.506 483.146 354.506 477.906 353.694C477.906 353.694 473.214 351.261 475.904 344.135Z" fill="#FFC3AB"/>
<path d="M484.538 345.292C484.538 345.292 483.115 348.026 482.325 348.596C481.536 349.157 486.972 353.316 486.972 353.316C486.972 353.316 487.816 347.113 484.538 345.292Z" fill="#FFC3AB"/>
<path d="M494.298 340.854C494.298 340.854 486.65 340.879 486.502 342.114C486.354 343.348 487.039 343.903 487.039 343.903L483.896 345.342C483.896 345.342 482.357 347.467 485.128 348.52C485.128 348.52 483.485 350.353 486.274 351.065C486.274 351.065 485.762 352.706 486.963 353.316C488.398 354.04 493.118 353.648 493.118 353.648C493.118 353.648 494.221 353.122 493.801 351.236C493.801 351.236 495.239 350.144 494.644 348.398C494.644 348.398 496.181 346.671 495.337 344.736C495.337 344.736 496.473 342.683 495.084 340.895C495.084 340.895 494.614 340.852 494.298 340.854Z" fill="#FFC3AB"/>
<path d="M481.618 339.633C481.618 339.633 486.295 342.001 488.281 344.422C488.725 344.974 489.064 345.585 488.726 346.206C488.387 346.828 487.055 347.129 484.972 346.204C482.898 345.28 479.787 345.034 479.787 345.034C479.787 345.034 477.923 343.462 481.618 339.633Z" fill="#FFC3AB"/>
<path d="M495.346 344.737C495.346 344.737 487.083 343.775 486.313 344.134C485.553 344.483 485.896 341.48 486.568 341.218C487.239 340.966 494.16 340.671 494.838 340.808C495.527 340.928 496.941 343.319 495.346 344.737Z" fill="#FFC3AB"/>
<path d="M473.417 342.79L475.135 343.084L473.347 352.426L469.761 352.238L473.417 342.79Z" fill="#DECAC4"/>
<path d="M493.374 340.453C493.374 340.453 506.846 342.142 506.754 343.713C506.666 345.219 503.459 346.107 493.167 344.4C483.152 342.735 493.374 340.453 493.374 340.453Z" fill="#FFC3AB"/>
<path d="M242.33 433.015C242.33 433.015 246.529 424.337 249.461 423.934C252.392 423.532 249.886 425.718 249.886 425.718C249.886 425.718 245.878 431.634 244.506 434.12C244.434 434.246 242.33 433.015 242.33 433.015Z" fill="#5F2509"/>
<path d="M261.541 417.505C261.541 417.505 260.549 421.763 260.154 426.117C259.768 430.462 260.385 432.144 258.991 434.156C257.93 435.658 255.532 436.135 255.274 435.398C255.025 434.672 257.473 428.108 254.786 427.022C252.09 425.944 252.254 435.37 250.901 434.122C249.548 432.874 244.807 426.962 246.545 423.865C248.283 420.767 251.708 419.427 253.57 414.492C255.26 410.02 257.403 408.742 257.403 408.742L261.541 417.505Z" fill="#FFC3AB"/>
<path d="M255.146 426.864C255.146 426.864 258.339 429.266 253.123 441.245L249.363 438.889C249.363 438.889 252.194 432.262 252.504 428.126C252.504 428.126 253.68 425.833 255.146 426.864Z" fill="#5F2509"/>
<path d="M251.333 415.616C251.333 415.616 257.801 422.721 260.992 422.314C264.184 421.897 286.233 382.836 289.1 376.944C291.967 371.051 305.834 357.939 305.834 357.939C305.834 357.939 305.843 357.94 305.851 357.959L305.85 357.987L305.849 358.005C306.132 359.317 310.037 377.494 309.752 386.117C309.459 395.065 310.932 411.705 310.932 411.705L313.656 412.246L359.073 421.077L363.157 421.857C363.157 421.857 365.637 418.919 365.649 411.959C365.659 407.529 365.559 399.191 366.183 391.512L366.19 391.392C366.204 391.3 366.199 391.207 366.204 391.115C366.216 391.069 366.227 391.033 366.229 390.996C366.59 386.77 364.218 383.031 365.163 380.031C367.8 371.633 366.739 363.93 366.72 363.596L367.883 346.871C368.268 347.846 398.311 346.538 400.741 347.574C403.206 348.639 445.077 351.742 447.849 349.421C450.788 346.934 450.123 342.654 450.123 342.654L402.406 336.854L375.797 329.231C375.434 328.906 369.837 328.872 366.656 327.148C361.753 324.491 354.925 320.898 350.54 318.601C347.97 317.252 346.246 316.356 346.246 316.356C346.246 316.356 327.585 313.589 326.12 313.605C325.656 313.608 323.389 314.259 320.381 315.223C313.895 317.311 304.035 320.808 302.003 322.101C299.029 324.012 277.535 365.057 275.687 367.945C273.848 370.843 251.333 415.616 251.333 415.616Z" fill="#F1F1F1"/>
<path d="M363.147 421.856C363.147 421.856 364.282 423.38 364.311 429.536C364.311 429.536 314.795 421.102 309.647 418.534C309.647 418.534 309.797 411.775 310.922 411.714C312.158 411.649 363.147 421.856 363.147 421.856Z" fill="#5F2509"/>
<path d="M326.32 311.919C326.067 319.747 340.965 324.81 340.965 324.81C340.965 324.81 347.722 317.202 346.256 316.356C345.68 316.029 345.491 314.842 345.497 313.508C345.489 312.238 345.637 310.837 345.756 309.963C345.832 309.41 345.888 309.052 345.888 309.052C345.888 309.052 343.854 306.656 341.242 303.794C336.684 298.791 330.385 292.362 330.248 294.783C330.242 294.913 330.262 295.062 330.289 295.24C331.168 300.754 326.32 311.919 326.32 311.919Z" fill="#FFC3AB"/>
<path d="M322.247 413.503C322.247 413.503 320.797 420.304 320.611 422.083L318.324 421.509C318.324 421.509 319.342 414.287 319.785 413.087L322.247 413.503Z" fill="#5D676C"/>
<path d="M359.039 420.844C359.039 420.844 359.59 427.12 359.485 429.478L357.062 429.036C357.062 429.036 356.97 421.227 356.736 420.399L359.039 420.844Z" fill="#292C46"/>
<path d="M332.743 300.763C332.769 300.81 333.365 301.806 334.384 303.24C336.56 306.283 340.671 311.318 345.478 313.498C345.48 312.237 345.636 310.846 345.766 309.963C346.266 309.971 346.759 309.941 347.264 309.856C346.046 307.438 344.235 304.868 344.235 304.868L341.232 303.794L332.743 300.763Z" fill="#A7785F"/>
<path d="M330.141 294.88C331.305 297.795 332.435 299.931 332.744 300.763C332.946 301.311 333.53 302.203 334.384 303.231C336.739 306.051 341.193 309.844 345.766 309.963C346.265 309.98 346.768 309.941 347.273 309.857C349.133 309.556 351.351 308.801 352.675 306.525C363.09 288.534 357.042 273.072 357.042 273.072C357.042 273.072 331.599 264.416 327.153 271.969C324.029 277.273 327.414 288.026 330.141 294.88Z" fill="#FFC3AB"/>
<path d="M357.042 273.072C357.042 273.072 359.452 273.059 360.282 268.552C361.1 264.09 359.982 262.78 359.982 262.78C359.982 262.78 359.286 265.793 346.248 258.483C342.872 256.582 332.566 255.152 330.234 257.56C330.234 257.56 324.939 256.031 323.012 264.847C319.952 278.849 329.448 293.082 329.448 293.082C329.448 293.082 329.838 283.862 331.945 282.749C334.043 281.626 335.647 284.63 335.647 284.63L339.767 285.587C339.767 285.587 334.16 271.613 341.766 271.502C349.381 271.4 352.656 273.63 357.042 273.072Z" fill="#313133"/>
<path d="M335.711 280.935C335.535 276.857 328.258 274.928 328.525 279.205C328.801 283.493 332.201 287.767 333.881 287.716C335.562 287.666 335.853 284.048 335.711 280.935Z" fill="#FFC3AB"/>
<path d="M320.391 315.223C319.391 315.551 318.288 315.901 317.175 316.278C311.033 318.338 299.174 321.424 297.458 322.521C294.485 324.422 277.544 365.049 275.697 367.936C273.849 370.824 251.422 414.092 251.422 414.092C251.422 414.092 259.462 421.798 262.654 421.382C265.846 420.965 285.918 382.653 289.11 376.926C292.772 370.37 305.843 357.949 305.843 357.949C307.197 363.757 306.635 387.761 306.635 387.761C306.069 398.372 296.155 422.359 291.195 434.231C289.891 437.361 291.13 440.957 294.073 442.631L312.776 453.26C312.776 453.26 321.002 437.443 325.229 420.62C327.561 411.316 331.061 399.015 333.413 388.09C335.669 377.577 336.983 367.552 337.879 361.408C340.888 340.961 321.592 316.713 320.391 315.223Z" fill="#FAAA39"/>
<path d="M415.556 334.586L474.284 342.521C474.284 342.521 473.059 350.149 472.191 352.746C471.631 354.394 416.249 351.436 413.556 351.35C410.605 351.251 370.842 350.548 370.458 349.564L368.833 364.309C368.505 377.629 366.297 386.699 366.551 397.065C367.051 417.047 373.676 439.722 375.734 447.847C376.08 449.209 375.625 450.641 374.54 451.538L368.261 456.743C368.261 456.743 361.294 430.694 360.799 421.39C360.315 412.402 357.948 400.266 357.247 388.532C356.368 373.647 355.409 358.878 354.631 350.199C352.599 327.607 350.425 318.679 350.425 318.679L350.55 318.602C351.966 319.343 353.645 320.21 355.43 321.156C359.156 323.112 374.708 326.653 378.392 327.457C378.392 327.457 410.916 333.11 415.556 334.586Z" fill="#FAAA39"/>
<path d="M323.57 334.854L330.71 339.39L327.399 342.432L333.412 388.099C335.669 377.586 336.973 367.561 337.879 361.417C340.887 340.97 321.582 316.722 320.381 315.232C319.372 315.55 318.288 315.91 317.174 316.287L323.57 334.854Z" fill="#313133"/>
<path d="M350.315 318.488C350.315 318.488 352.589 327.616 354.631 350.209C355.408 358.897 356.368 373.647 357.256 388.533L361.186 346.27L357.882 342.287L361.192 338.55L355.411 321.164C353.635 320.219 351.966 319.343 350.55 318.602L350.315 318.488Z" fill="#313133"/>
<path d="M235.679 426.743L232.993 425.833L216.397 464.828L238.999 496.395L243.243 497.294L263.455 448.72L235.679 426.743Z" fill="#5F2509"/>
<path d="M338.191 416.48C338.191 416.48 345.465 417.741 347.856 418.469L347.119 426.68L337.57 425.141L338.191 416.48Z" fill="#FA5545"/>
<path d="M345.296 331.593C345.296 331.593 341.786 353.65 324.653 355.303C307.51 356.965 282.722 373.162 275.499 379.487L267.252 380.586L268.784 371.848C268.784 371.848 273.677 355.589 324.16 353.378C324.16 353.378 338.543 354.017 340.2 330.677C340.2 330.677 345.481 330.632 345.296 331.593Z" fill="#FA5545"/>
<path d="M346.548 331.832C346.548 331.832 342.257 334.647 337.655 331.903C337.655 331.903 339.815 325 340.91 324.807C342.004 324.623 347.141 330.584 346.548 331.832Z" fill="#FA5545"/>
<path d="M320.007 315.296L326.311 311.909C326.311 311.909 326.311 315.265 340.975 324.801L336.042 336.685L320.007 315.296Z" fill="#F1F1F1"/>
<path d="M345.541 314.604C345.541 314.604 345.111 318.206 340.966 324.801L348.777 336.166L350.324 318.479L345.541 314.604Z" fill="#F1F1F1"/>
<path d="M232.984 425.833L230.692 452.758C230.512 454.955 232.535 456.674 234.668 456.127L263.464 448.72L235.67 426.752L232.984 425.833Z" fill="#712708"/>
<path d="M231.698 452.848L229.028 457.982L228.92 460.043L230.346 459.534L233.36 454.196L231.698 452.848Z" fill="#712708"/>
<path d="M346.933 284.161C347.924 284.213 348.716 284.492 348.701 284.784C348.686 285.075 347.868 285.27 346.877 285.218C345.886 285.166 345.094 284.887 345.109 284.596C345.124 284.304 345.941 284.109 346.933 284.161Z" fill="black" fill-opacity="0.7"/>
<path d="M354.789 284.573C355.78 284.625 356.573 284.904 356.558 285.196C356.542 285.487 355.725 285.682 354.734 285.63C353.743 285.578 352.95 285.299 352.966 285.007C352.981 284.716 353.798 284.521 354.789 284.573Z" fill="black" fill-opacity="0.7"/>
<path d="M344.77 296.891C344.77 296.891 345.275 305.763 351.043 299.287Z" fill="white" fill-opacity="0.7"/>
</g>
</g>
<defs>
<clipPath id="clip0_1_31">
<rect width="803" height="803" fill="white"/>
</clipPath>
</defs>
</svg>
